<svg xmlns="http://www.w3.org/2000/svg" width="677" height="369" viewBox="0 0 677 369">
<g>
<path d="M 177.25 234.36 C167.46,235.98 165.82,234.76 168.39,227.78 C169.25,225.43 170.84,220.35 171.92,216.50 C172.99,212.65 176.64,200.05 180.02,188.50 C183.40,176.95 187.32,163.56 188.72,158.75 L 191.28 150.00 L 238.79 150.00 L 236.85 156.25 C235.78,159.69 234.57,162.83 234.18,163.22 C233.78,163.62 226.30,164.07 217.56,164.22 L 201.66 164.50 L 199.35 172.00 C198.08,176.12 197.03,180.06 197.02,180.75 C197.00,181.70 200.88,182.00 213.11,182.00 C225.58,182.00 229.11,182.28 228.74,183.25 C228.48,183.94 227.52,187.09 226.61,190.25 L 224.94 196.00 L 192.32 196.00 L 189.55 205.25 C188.03,210.34 185.48,218.83 183.89,224.12 L 180.99 233.74 ZM 247.42 232.49 C236.71,238.18 226.23,233.59 224.45,222.42 C223.70,217.72 225.84,208.19 229.07,201.86 C236.53,187.24 253.49,179.21 271.13,181.95 C275.14,182.57 278.58,183.25 278.79,183.45 C278.99,183.66 275.87,195.11 271.85,208.91 L 264.54 234.00 L 257.70 234.00 C251.31,234.00 250.91,233.87 251.50,231.99 C252.11,230.09 251.88,230.12 247.42,232.49 ZM 473.85 232.49 C465.73,237.13 456.59,235.03 452.82,227.65 C448.46,219.11 452.44,203.95 461.66,194.00 C471.10,183.80 483.57,179.69 498.20,181.96 C502.17,182.58 505.54,183.20 505.69,183.35 C505.84,183.50 502.65,194.85 498.59,208.56 L 491.23 233.50 L 484.49 233.80 C478.11,234.08 477.77,233.98 478.28,232.05 C478.30,231.97 478.32,231.89 478.34,231.81 C478.57,230.94 478.71,230.41 478.52,230.25 C478.23,229.98 477.14,230.61 474.34,232.21 ZM 441.52 230.96 L 440.30 234.50 L 416.65 234.77 C403.64,234.92 392.98,234.69 392.96,234.27 C392.93,233.85 398.43,214.71 405.18,191.75 L 417.44 150.00 L 424.74 150.00 C431.81,150.00 432.02,150.07 431.46,152.25 C431.14,153.49 426.47,169.12 421.07,187.00 C415.68,204.88 411.46,219.84 411.69,220.25 C411.93,220.66 419.33,221.00 428.14,221.00 L 444.16 221.00 L 443.45 224.21 C443.06,225.98 442.20,229.02 441.52,230.96 ZM 596.98 234.44 C589.63,236.11 585.02,236.29 580.99,235.07 C571.16,232.07 567.48,226.86 567.54,216.00 C567.59,206.69 570.64,199.45 577.68,191.88 C584.08,185.01 590.54,182.02 599.00,182.02 C606.68,182.03 609.60,183.30 612.81,188.01 C614.67,190.75 615.08,192.42 614.71,195.76 C613.58,206.09 605.24,211.66 589.19,212.81 L 579.50 213.50 L 579.65 216.82 C580.07,225.64 590.34,228.06 603.67,222.49 C605.67,221.66 607.44,221.11 607.60,221.27 C608.10,221.77 605.76,230.43 604.78,231.69 C604.28,232.34 600.77,233.58 596.98,234.44 ZM 523.06 219.28 L 518.62 234.00 L 512.31 234.00 C508.84,234.00 506.00,233.69 506.00,233.32 C506.00,232.95 509.17,222.04 513.05,209.07 C516.93,196.11 520.33,184.71 520.62,183.75 C521.04,182.32 522.31,182.00 527.65,182.00 L 534.16 182.00 L 532.77 188.50 L 535.15 186.30 C540.35,181.48 549.64,179.60 555.00,182.28 C556.38,182.97 558.31,185.10 559.31,187.01 C561.76,191.74 561.09,196.63 555.19,217.00 L 550.42 233.50 L 544.21 233.80 C540.79,233.96 538.01,233.74 538.01,233.30 C538.02,232.86 540.06,225.75 542.54,217.50 C548.92,196.32 548.82,191.67 542.00,191.67 C534.44,191.67 528.98,199.63 523.06,219.28 ZM 348.62 233.65 C346.72,235.61 339.80,236.07 335.50,234.52 C326.91,231.42 326.06,225.86 331.37,207.59 L 334.74 196.00 L 331.43 196.00 C329.61,196.00 327.90,195.65 327.63,195.22 C327.37,194.78 327.86,191.88 328.72,188.77 C330.28,183.16 330.34,183.10 334.36,182.80 L 338.41 182.50 L 344.08 164.00 L 350.54 164.00 C354.09,164.00 357.00,164.15 357.00,164.32 C357.00,164.50 355.88,168.41 354.50,173.00 C353.12,177.59 352.00,181.50 352.00,181.68 C352.00,181.85 354.97,182.00 358.61,182.00 C363.48,182.00 365.09,182.33 364.74,183.25 C364.48,183.94 363.52,187.09 362.61,190.25 L 360.94 196.00 L 354.22 196.00 L 347.50 196.01 L 344.75 205.25 C340.30,220.21 341.47,225.16 349.12,223.63 C351.13,223.22 352.00,223.45 352.00,224.38 C352.00,226.48 349.85,232.39 348.62,233.65 ZM 299.64 233.52 C296.89,234.33 292.81,234.97 290.57,234.93 C286.21,234.86 277.42,232.49 276.60,231.17 C275.74,229.76 278.81,222.49 280.18,222.70 C280.91,222.81 284.06,223.67 287.19,224.60 C294.08,226.65 298.14,225.49 300.03,220.92 C301.58,217.18 299.98,214.54 293.78,210.62 C288.42,207.24 286.00,203.47 286.00,198.53 C286.00,186.38 301.47,177.95 316.25,182.05 C318.31,182.63 320.00,183.32 320.00,183.60 C320.00,184.28 317.80,193.00 317.63,192.99 C317.56,192.98 315.29,192.31 312.60,191.49 C304.48,189.03 296.72,192.48 298.45,197.79 C298.75,198.73 301.36,201.09 304.24,203.04 C309.91,206.87 314.00,212.06 313.99,215.40 C313.97,223.36 307.87,231.07 299.64,233.52 ZM 240.00 223.00 C242.84,225.84 246.38,225.48 250.40,221.96 C254.68,218.20 257.12,213.25 260.88,200.72 L 263.80 191.00 L 259.86 191.00 C248.81,191.00 238.00,203.70 238.00,216.68 C238.00,219.67 238.62,221.62 240.00,223.00 ZM 466.45 222.55 C467.80,223.90 469.76,225.00 470.81,225.00 C474.25,225.00 479.27,220.58 482.16,215.00 C484.52,210.44 489.90,194.43 489.98,191.75 C490.02,190.39 482.87,190.97 479.44,192.60 C474.41,194.98 468.54,201.94 466.14,208.37 C463.32,215.90 463.40,219.49 466.45,222.55 ZM 582.00 203.60 C582.00,204.82 595.74,203.19 598.80,201.60 C603.62,199.11 604.60,193.69 600.58,191.85 C595.36,189.48 586.82,193.58 583.46,200.07 C582.66,201.63 582.00,203.21 582.00,203.60 Z" fill="rgb(1,1,1)"/>
<path d="M 191.26 150.07 L 188.72 158.75 C188.31,160.17 187.68,162.33 186.90,164.97 C185.64,164.32 171.99,163.93 144.25,163.76 L 101.50 163.50 L 107.50 156.84 L 113.50 150.19 L 176.15 150.09 ZM 186.04 167.92 C184.79,172.18 183.31,177.25 181.83,182.32 C179.73,182.14 159.02,182.00 134.00,182.00 C107.60,182.00 86.00,181.74 86.00,181.43 C86.00,181.12 88.14,178.42 90.75,175.44 L 95.50 170.03 L 140.21 170.01 C183.39,170.00 184.97,169.93 185.96,168.07 C185.99,168.02 186.02,167.97 186.04,167.92 ZM 180.22 187.81 L 180.02 188.50 C178.44,193.89 176.81,199.50 175.40,204.35 C175.44,204.15 175.48,203.95 175.52,203.75 L 176.22 200.02 L 69.21 199.50 L 77.76 189.65 L 128.83 189.19 L 179.90 188.73 ZM 174.27 208.28 C173.19,212.00 172.35,214.96 171.92,216.50 C171.40,218.35 170.77,220.48 170.15,222.46 C170.30,221.82 170.44,221.18 170.55,220.61 L 171.22 217.00 L 52.59 217.00 L 60.41 209.00 L 117.14 209.00 C147.46,209.00 172.63,208.68 174.27,208.28 ZM 167.96 229.00 C166.90,232.27 167.05,234.03 168.96,234.69 C161.42,234.54 134.34,234.25 103.19,234.01 L 37.88 233.50 L 42.08 229.00 Z" fill="rgb(188,37,60)"/>
<path d="M 0.00 184.50 L 0.00 0.00 L 338.50 0.00 L 677.00 0.00 L 677.00 184.50 L 677.00 369.00 L 338.50 369.00 L 0.00 369.00 L 0.00 184.50 ZM 348.62 233.65 C349.85,232.39 352.00,226.48 352.00,224.38 C352.00,223.45 351.13,223.22 349.12,223.63 C341.47,225.16 340.30,220.21 344.75,205.25 L 347.50 196.01 L 354.22 196.00 L 360.94 196.00 L 362.61 190.25 C363.52,187.09 364.48,183.94 364.74,183.25 C365.09,182.33 363.48,182.00 358.61,182.00 C354.97,182.00 352.00,181.85 352.00,181.68 C352.00,181.50 353.12,177.59 354.50,173.00 C355.88,168.41 357.00,164.50 357.00,164.32 C357.00,164.15 354.09,164.00 350.54,164.00 L 344.08 164.00 L 341.24 173.25 L 338.41 182.50 L 334.36 182.80 C330.34,183.10 330.28,183.16 328.72,188.77 C327.86,191.88 327.37,194.78 327.63,195.22 C327.90,195.65 329.61,196.00 331.43,196.00 L 334.74 196.00 L 331.37 207.59 C326.06,225.86 326.91,231.42 335.50,234.52 C339.80,236.07 346.72,235.61 348.62,233.65 ZM 596.98 234.44 C600.77,233.58 604.28,232.34 604.78,231.69 C605.76,230.43 608.10,221.77 607.60,221.27 C607.44,221.11 605.67,221.66 603.67,222.49 C590.34,228.06 580.07,225.64 579.65,216.82 L 579.50 213.50 L 589.19 212.81 C605.24,211.66 613.58,206.09 614.71,195.76 C615.08,192.42 614.67,190.75 612.81,188.01 C609.60,183.30 606.68,182.03 599.00,182.02 C590.54,182.02 584.08,185.01 577.68,191.88 C570.64,199.45 567.59,206.69 567.54,216.00 C567.48,226.86 571.16,232.07 580.99,235.07 C585.02,236.29 589.63,236.11 596.98,234.44 ZM 177.25 234.36 L 180.99 233.74 L 183.89 224.12 C185.48,218.83 188.03,210.34 189.55,205.25 L 192.32 196.00 L 208.63 196.00 L 224.94 196.00 L 226.61 190.25 C227.52,187.09 228.48,183.94 228.74,183.25 C229.11,182.28 225.58,182.00 213.11,182.00 C200.88,182.00 197.00,181.70 197.02,180.75 C197.03,180.06 198.08,176.12 199.35,172.00 L 201.66 164.50 L 217.56 164.22 C226.30,164.07 233.78,163.62 234.18,163.22 C234.57,162.83 235.78,159.69 236.85,156.25 L 238.79 150.00 L 176.15 150.09 L 113.50 150.19 L 107.50 156.84 L 101.50 163.50 L 144.25 163.76 C173.40,163.94 187.00,164.36 187.00,165.08 C187.00,165.66 186.53,167.00 185.96,168.07 C184.97,169.93 183.39,170.00 140.21,170.01 L 95.50 170.03 L 90.75 175.44 C88.14,178.42 86.00,181.12 86.00,181.43 C86.00,181.74 107.60,182.00 134.00,182.00 C160.40,182.00 182.00,182.16 182.00,182.35 C182.00,182.54 181.53,184.06 180.95,185.72 L 179.90 188.73 L 128.83 189.19 L 77.76 189.65 L 73.48 194.57 L 69.21 199.50 L 122.72 199.76 L 176.22 200.02 L 175.52 203.75 C175.13,205.80 174.61,207.83 174.35,208.24 C174.09,208.66 148.35,209.00 117.14,209.00 L 60.41 209.00 L 56.50 213.00 L 52.59 217.00 L 111.91 217.00 L 171.22 217.00 L 170.55 220.61 C170.17,222.59 169.46,225.29 168.96,226.61 L 168.05 229.00 L 105.06 229.00 L 42.08 229.00 L 39.98 231.25 L 37.88 233.50 L 103.19 234.01 C139.11,234.29 169.62,234.62 171.00,234.75 C172.38,234.88 175.19,234.70 177.25,234.36 ZM 247.42 232.49 C251.88,230.12 252.11,230.09 251.50,231.99 C250.91,233.87 251.31,234.00 257.70,234.00 L 264.54 234.00 L 271.85 208.91 C275.87,195.11 278.99,183.66 278.79,183.45 C278.58,183.25 275.14,182.57 271.13,181.95 C253.49,179.21 236.53,187.24 229.07,201.86 C225.84,208.19 223.70,217.72 224.45,222.42 C226.23,233.59 236.71,238.18 247.42,232.49 ZM 299.64 233.52 C307.87,231.07 313.97,223.36 313.99,215.40 C314.00,212.06 309.91,206.87 304.24,203.04 C301.36,201.09 298.75,198.73 298.45,197.79 C296.72,192.48 304.48,189.03 312.60,191.49 C315.29,192.31 317.56,192.98 317.63,192.99 C317.80,193.00 320.00,184.28 320.00,183.60 C320.00,183.32 318.31,182.63 316.25,182.05 C301.47,177.95 286.00,186.38 286.00,198.53 C286.00,203.47 288.42,207.24 293.78,210.62 C299.98,214.54 301.58,217.18 300.03,220.92 C298.14,225.49 294.08,226.65 287.19,224.60 C284.06,223.67 280.91,222.81 280.18,222.70 C278.81,222.49 275.74,229.76 276.60,231.17 C277.42,232.49 286.21,234.86 290.57,234.93 C292.81,234.97 296.89,234.33 299.64,233.52 ZM 441.52 230.96 C442.20,229.02 443.06,225.98 443.45,224.21 L 444.16 221.00 L 428.14 221.00 C419.33,221.00 411.93,220.66 411.69,220.25 C411.46,219.84 415.68,204.88 421.07,187.00 C426.47,169.12 431.14,153.49 431.46,152.25 C432.02,150.07 431.81,150.00 424.74,150.00 L 417.44 150.00 L 405.18 191.75 C398.43,214.71 392.93,233.85 392.96,234.27 C392.98,234.69 403.64,234.92 416.65,234.77 L 440.30 234.50 L 441.52 230.96 ZM 473.85 232.49 C479.09,229.49 478.94,229.51 478.28,232.05 C477.77,233.98 478.11,234.08 484.49,233.80 L 491.23 233.50 L 498.59 208.56 C502.65,194.85 505.84,183.50 505.69,183.35 C505.54,183.20 502.17,182.58 498.20,181.96 C483.57,179.69 471.10,183.80 461.66,194.00 C452.44,203.95 448.46,219.11 452.82,227.65 C456.59,235.03 465.73,237.13 473.85,232.49 ZM 523.06 219.28 C528.98,199.63 534.44,191.67 542.00,191.67 C548.82,191.67 548.92,196.32 542.54,217.50 C540.06,225.75 538.02,232.86 538.01,233.30 C538.01,233.74 540.79,233.96 544.21,233.80 L 550.42 233.50 L 555.19 217.00 C561.09,196.63 561.76,191.74 559.31,187.01 C558.31,185.10 556.38,182.97 555.00,182.28 C549.64,179.60 540.35,181.48 535.15,186.30 L 532.77 188.50 L 533.46 185.25 L 534.16 182.00 L 527.65 182.00 C522.31,182.00 521.04,182.32 520.62,183.75 C520.33,184.71 516.93,196.11 513.05,209.07 C509.17,222.04 506.00,232.95 506.00,233.32 C506.00,233.69 508.84,234.00 512.31,234.00 L 518.62 234.00 L 523.06 219.28 ZM 582.00 203.60 C582.00,203.21 582.66,201.63 583.46,200.07 C586.82,193.58 595.36,189.48 600.58,191.85 C604.60,193.69 603.62,199.11 598.80,201.60 C595.74,203.19 582.00,204.82 582.00,203.60 ZM 240.00 223.00 C238.62,221.62 238.00,219.67 238.00,216.68 C238.00,203.70 248.81,191.00 259.86,191.00 L 263.80 191.00 L 260.88 200.72 C257.12,213.25 254.68,218.20 250.40,221.96 C246.38,225.48 242.84,225.84 240.00,223.00 ZM 466.45 222.55 C463.40,219.49 463.32,215.90 466.14,208.37 C468.54,201.94 474.41,194.98 479.44,192.60 C482.87,190.97 490.02,190.39 489.98,191.75 C489.90,194.43 484.52,210.44 482.16,215.00 C479.27,220.58 474.25,225.00 470.81,225.00 C469.76,225.00 467.80,223.90 466.45,222.55 Z" fill="rgb(254,254,254)"/>
</g>
</svg>